Input #0, mov,mp4,m4a,3gp,3g2,mj2, from '/home/hbattu/projects/huberman-gpt/huberman-audio/mp3/tmps4570vd4.mp4':
  Metadata:
    major_brand     : dash
    minor_version   : 0
    compatible_brands: iso6mp41
    creation_time   : 2021-05-26T11:23:32.000000Z
  Duration: 01:53:53.82, start: 0.000000, bitrate: 129 kb/s
    Stream #0:0(und): Audio: aac (LC) (mp4a / 0x6134706D), 44100 Hz, stereo, fltp, 0 kb/s (default)
    Metadata:
      creation_time   : 2021-05-26T11:23:32.000000Z
      handler_name    : ISO Media file produced by Google Inc.
Stream mapping:
  Stream #0:0 -> #0:0 (aac (native) -> mp3 (libmp3lame))
Press [q] to stop, [?] for help
[graph_0_in_0_0 @ 0x557a85e3a0c0] tb:1/44100 samplefmt:fltp samplerate:44100 chlayout:0x3
Output #0, mp3, to '../huberman-audio/mp3/GqPGXG5TlZw.mp3':
  Metadata:
    major_brand     : dash
    minor_version   : 0
    compatible_brands: iso6mp41
    TSSE            : Lavf58.29.100
    Stream #0:0(und): Audio: mp3 (libmp3lame), 44100 Hz, stereo, fltp, delay 1105 (default)
    Metadata:
      creation_time   : 2021-05-26T11:23:32.000000Z
      handler_name    : ISO Media file produced by Google Inc.
      encoder         : Lavc58.54.100 libmp3lame
No more output streams to write to, finishing.
size=  106780kB time=01:53:53.84 bitrate= 128.0kbits/s speed=83.4x    
[AVIOContext @ 0x557a85d2b900] Statistics: 0 seeks, 164 writeouts
video:0kB audio:106779kB subtitle:0kB other streams:0kB global headers:0kB muxing overhead: 0.000316%
Input file #0 (/home/hbattu/projects/huberman-gpt/huberman-audio/mp3/tmps4570vd4.mp4):
  Input stream #0:0 (audio): 294308 packets read (109341094 bytes); 294308 frames decoded (301371392 samples); 
  Total: 294308 packets (109341094 bytes) demuxed
Output file #0 (../huberman-audio/mp3/GqPGXG5TlZw.mp3):
  Output stream #0:0 (audio): 261608 frames encoded (301371392 samples); 261609 packets muxed (109341884 bytes); 
  Total: 261609 packets (109341884 bytes) muxed
[AVIOContext @ 0x557a85d554c0] Statistics: 2 seeks, 419 writeouts
[AVIOContext @ 0x557a85d34880] Statistics: 110598450 bytes read, 0 seeks
